<?xml version="1.0" encoding="UTF-8"?>
<svg version="1.1" xmlns="http://www.w3.org/2000/svg" width="500" height="500">
<path d="M0 0 C165 0 330 0 500 0 C500 165 500 330 500 500 C335 500 170 500 0 500 C0 335 0 170 0 0 Z " fill="#2D3F57" transform="translate(0,0)"/>
<path d="M0 0 C120.45 0 240.9 0 365 0 C360.50483559 7.86653772 360.50483559 7.86653772 358.30078125 11.12890625 C357.81287109 11.85529297 357.32496094 12.58167969 356.82226562 13.33007812 C356.07493164 14.43512695 356.07493164 14.43512695 355.3125 15.5625 C351.31264557 21.48960596 347.3998421 27.46728041 343.54180908 33.48745728 C339.25907797 40.16614608 334.91361215 46.80323425 330.5625 53.4375 C330.14824768 54.06963409 329.73399536 54.70176819 329.30718994 55.35305786 C324.30633271 62.98388588 319.2854928 70.60038215 314.20751953 78.18017578 C311.37776174 82.41183193 308.61721681 86.68480508 305.87548828 90.97387695 C301.50980734 97.79048282 297.06781225 104.55728448 292.63397217 111.32965088 C287.76139459 118.77232074 282.90252531 126.22360228 278.0625 133.6875 C274.1552434 139.70775346 270.22563564 145.71214344 266.25 151.6875 C265.83113525 152.31809326 265.41227051 152.94868652 264.98071289 153.59838867 C262.1237872 157.8762128 262.1237872 157.8762128 261 159 C243.84 159 226.68 159 209 159 C209 216.75 209 274.5 209 334 C241.67 334 274.34 334 308 334 C308 334.33 308 334.66 308 335 C275.33 335 242.66 335 209 335 C208.34 336.65 207.68 338.3 207 340 C205.85625087 341.84042126 204.66393567 343.65111593 203.4375 345.4375 C200.54933633 349.69754141 197.70985512 353.97544446 194.9375 358.3125 C190.90991939 364.60621098 186.83456124 370.86814078 182.75 377.125 C173.57441124 391.181832 164.41905088 405.25151693 155.30810547 419.3503418 C151.34751743 425.47391043 147.36176194 431.58094997 143.375 437.6875 C138.26177621 445.52042879 133.17693753 453.37003115 128.12744141 461.24414062 C122.11261124 470.61154179 116.07735156 479.9624282 109.8515625 489.19140625 C107.50367087 492.75287055 105.26084298 496.38265123 103 500 C69.01 500 35.02 500 0 500 C0 335 0 170 0 0 Z " fill="#1D2642" transform="translate(0,0)"/>
<path d="M0 0 C0.33 0 0.66 0 1 0 C1 112.53 1 225.06 1 341 C-74.9 341 -150.8 341 -229 341 C-227.35543844 336.88859609 -226.09139147 334.53416665 -223.5 331.125 C-220.44634685 327.00826334 -217.50975577 322.84014135 -214.6875 318.5625 C-209.82701816 311.21178936 -204.88883024 303.91468399 -199.9375 296.625 C-199.53110291 296.02648224 -199.12470581 295.42796448 -198.70599365 294.81130981 C-194.23238354 288.22310876 -189.75431621 281.63794663 -185.2734375 275.0546875 C-184.5144038 273.93929071 -183.75537058 272.82389358 -182.99633789 271.70849609 C-181.59246362 269.64592307 -180.1880489 267.58371773 -178.78295898 265.52197266 C-175.47006967 260.65566121 -172.17862673 255.77649016 -168.91796875 250.875 C-165.4880999 245.71996517 -162.00814639 240.60197093 -158.5 235.5 C-154.96921029 230.35328822 -151.44869877 225.20227441 -148 220 C-144.63411541 214.92288836 -141.19705549 209.8971202 -137.75 204.875 C-130.99869123 195.03321384 -124.37577938 185.10889798 -117.78125 175.16162109 C-112.47100602 167.15364758 -107.09743148 159.19099261 -101.6875 151.25 C-93.57162846 139.33445059 -85.49932661 127.38967217 -77.4375 115.4375 C-76.80419769 114.49861938 -76.17089539 113.55973877 -75.5184021 112.59240723 C-67.69112523 100.98574141 -59.88870887 89.36362486 -52.1418457 77.703125 C-47.65209736 70.95336989 -43.09031004 64.25550147 -38.5012207 57.57299805 C-34.10670032 51.17045356 -29.78767328 44.72086165 -25.49462891 38.25 C-22.29481097 33.43302481 -19.08355002 28.62366103 -15.875 23.8125 C-14.55985863 21.83986855 -13.24475375 19.86721278 -11.9296875 17.89453125 C-11.2912793 16.93885254 -10.65287109 15.98317383 -9.99511719 14.99853516 C-8.57701607 12.86721872 -7.16627401 10.73212591 -5.76269531 8.59130859 C-4.67746582 6.94316162 -4.67746582 6.94316162 -3.5703125 5.26171875 C-2.91047363 4.25455811 -2.25063477 3.24739746 -1.57080078 2.2097168 C-1.05243652 1.48051025 -0.53407227 0.75130371 0 0 Z " fill="#C0C5CE" transform="translate(499,159)"/>
<path d="M0 0 C17.16 0 34.32 0 52 0 C54.31 2.64 56.62 5.28 59 8 C60.50149278 9.539931 62.01909778 11.06457556 63.5625 12.5625 C64.69365234 13.70912109 64.69365234 13.70912109 65.84765625 14.87890625 C67.89656129 16.96407716 67.89656129 16.96407716 69.87109375 18.52734375 C73.81246924 22.09064965 74.2958677 25.19226153 74.56445312 30.30859375 C74.6041927 31.82895296 74.61680082 33.35031243 74.59960938 34.87109375 C74.60296832 38.59951956 74.85008921 40.75822898 76.8359375 43.9609375 C81.26265741 48.13196239 86.97994655 47.29503955 92.75 47.5234375 C96 48 96 48 97.68057728 49.21539021 C99.44216476 51.59805818 99.36978406 53.08061383 99.36076355 56.03031921 C99.36488754 57.06938416 99.36901154 58.1084491 99.3732605 59.17900085 C99.36247467 60.31835587 99.35168884 61.45771088 99.34057617 62.6315918 C99.34123329 64.43178268 99.34123329 64.43178268 99.34190369 66.26834106 C99.34017051 69.55960168 99.32511531 72.85029925 99.30418181 76.14146018 C99.28544047 79.58076558 99.28366659 83.0200783 99.28010559 86.45942688 C99.27077761 92.97239581 99.24615376 99.48521386 99.21605712 105.99811631 C99.1792488 114.13999129 99.16281678 122.28189073 99.14648438 130.42382812 C99.11725663 144.94933632 99.05716194 159.47451522 99 174 C66.33 174 33.66 174 0 174 C0 116.58 0 59.16 0 0 Z " fill="#F9F9F9" transform="translate(209,159)"/>
<path d="M0 0 C0.33 0 0.66 0 1 0 C3.4439334 25.39393018 1.59201395 41.35353196 -14.76171875 61.23876953 C-17.70585461 64.8707696 -20.23231513 68.69226255 -22.75 72.625 C-23.67295247 74.01490341 -24.59892213 75.40280637 -25.52734375 76.7890625 C-27.99777434 80.49432513 -30.46493724 84.20175152 -32.9312439 87.90975952 C-34.8959748 90.8632135 -36.86169916 93.81600564 -38.82751465 96.76873779 C-39.80442458 98.23659214 -40.78091742 99.70472418 -41.75695801 101.17315674 C-50.5860061 114.45554959 -50.5860061 114.45554959 -54.3828125 119.8203125 C-59.35807668 126.86756217 -64.07275315 134.09307782 -68.84106445 141.28100586 C-77.46995234 154.28369112 -86.14512681 167.23259864 -95.1640625 179.96875 C-99.20013288 185.67444733 -103.05383449 191.50008781 -106.90039062 197.33447266 C-108.63269183 199.95830898 -110.3794076 202.57249434 -112.125 205.1875 C-113.41670645 207.12497348 -114.70836891 209.06247628 -116 211 C-116.61029053 211.91507324 -117.22058105 212.83014648 -117.84936523 213.77294922 C-121.22477343 218.83454087 -124.59767177 223.89776872 -127.96484375 228.96484375 C-140.31210046 247.53548528 -140.31210046 247.53548528 -146.59375 256.53515625 C-154.52005564 267.90996501 -162.29315782 279.39621552 -169.95703125 290.94921875 C-173.08788759 295.62455107 -176.27660671 300.25994679 -179.45849609 304.90063477 C-185.22761829 313.32023702 -190.95620023 321.76717192 -196.68408203 330.21484375 C-197.49901026 331.4166756 -198.31395168 332.61849851 -199.12890625 333.8203125 C-199.53286621 334.41604065 -199.93682617 335.0117688 -200.35302734 335.62554932 C-203.13654636 339.72948766 -205.92432753 343.83050426 -208.71484375 347.9296875 C-209.09434174 348.48725739 -209.47383972 349.04482727 -209.86483765 349.61929321 C-211.64844249 352.23967943 -213.43262454 354.85966927 -215.21777344 357.47900391 C-215.86133789 358.42437012 -216.50490234 359.36973633 -217.16796875 360.34375 C-218.12098877 361.71805176 -218.12098877 361.71805176 -219.09326172 363.12011719 C-220.43729011 365.15009913 -221.69806703 367.23641142 -222.89501953 369.35644531 C-227.64648292 377.48914922 -227.64648292 377.48914922 -231.50463867 378.9453125 C-234.26798169 379.18142173 -236.7460087 379.06222576 -239.5 378.75 C-240.87671875 378.66878906 -240.87671875 378.66878906 -242.28125 378.5859375 C-244.53085712 378.44533706 -246.76031134 378.24956531 -249 378 C-247.49953054 373.70721306 -245.24519482 370.15792018 -242.6875 366.4375 C-241.7697246 365.08147891 -240.85311401 363.72466894 -239.9375 362.3671875 C-239.21240234 361.29355957 -239.21240234 361.29355957 -238.47265625 360.19824219 C-236.00362156 356.51270035 -233.5973098 352.78692618 -231.1875 349.0625 C-224.9132323 339.38148978 -218.58427634 329.7368384 -212.25030518 320.09484863 C-206.50309754 311.34564293 -200.7708112 302.58715897 -195.0625 293.8125 C-188.72718622 284.08147167 -182.3031405 274.41186259 -175.84619141 264.76123047 C-172.47524533 259.7195219 -169.11333988 254.67178436 -165.75 249.625 C-164.39847452 247.59763157 -163.04691312 245.57028709 -161.6953125 243.54296875 C-161.06141602 242.59212402 -160.42751953 241.6412793 -159.77441406 240.66162109 C-157.39127604 237.08691406 -155.00813802 233.51220703 -152.625 229.9375 C-151.90199707 228.85267334 -151.17899414 227.76784668 -150.43408203 226.65014648 C-148.90423684 224.35522549 -147.37263828 222.06150998 -145.83984375 219.76855469 C-138.63296123 208.98402859 -131.50237228 198.14967543 -124.375 187.3125 C-109.81303962 165.17282364 -109.81303962 165.17282364 -103 155 C-102.55914062 154.34169189 -102.11828125 153.68338379 -101.6640625 153.00512695 C-101.08205078 152.13633911 -101.08205078 152.13633911 -100.48828125 151.25 C-95.76988585 144.20205571 -91.11393483 137.11679589 -86.5 130 C-81.54535589 122.35962079 -76.53643589 114.75973431 -71.46826172 107.19433594 C-68.38895226 102.59226852 -65.32076033 97.98277407 -62.25 93.375 C-60.85160005 91.27731872 -59.45316257 89.17966245 -58.0546875 87.08203125 C-57.36858398 86.05287598 -56.68248047 85.0237207 -55.97558594 83.96337891 C-50.25240072 75.37860107 -44.52921549 66.79382324 -38.80603027 58.20904541 C-38.38760864 57.58141296 -37.96918701 56.95378052 -37.53808594 56.30712891 C-37.10386826 55.65580994 -36.66965057 55.00449097 -36.22227478 54.33343506 C-35.31140886 52.96712079 -34.40057151 51.60078748 -33.48976135 50.23443604 C-31.13470628 46.70158366 -28.77916134 43.16905982 -26.42260742 39.63720703 C-22.2507145 33.38362445 -18.08140307 27.12846404 -13.93228149 20.85974121 C-12.24914099 18.3169905 -10.56366875 15.77578964 -8.87805176 13.23468018 C-8.08748894 12.04129752 -7.2981714 10.84708894 -6.51013184 9.65203857 C-5.43037319 8.01471102 -4.34617553 6.38031336 -3.26171875 4.74609375 C-2.65287842 3.82497803 -2.04403809 2.9038623 -1.41674805 1.95483398 C-0.94922119 1.30973877 -0.48169434 0.66464355 0 0 Z " fill="#1E2541" transform="translate(499,122)"/>
<path d="M0 0 C8.91 0 17.82 0 27 0 C27 2.64 27 5.28 27 8 C20.73 8 14.46 8 8 8 C8.04189453 9.72033447 8.08378906 11.44066895 8.12695312 13.21313477 C8.25629476 18.91650051 8.34802686 24.6196548 8.41449738 30.32409763 C8.45613765 33.7807866 8.51254464 37.23587987 8.60351562 40.69165039 C8.70759391 44.67053679 8.74598235 48.64879207 8.78125 52.62890625 C8.82254028 53.86145645 8.86383057 55.09400665 8.90637207 56.36390686 C8.91076316 64.79857014 8.91076316 64.79857014 6.27124023 68.28048706 C4.26273131 70.04322095 2.21828522 71.51633451 0 73 C-1.02531874 73.95262209 -2.02948327 74.92910294 -3 75.9375 C-3.66 76.618125 -4.32 77.29875 -5 78 C-3.91638761 80.90710412 -2.9914399 82.00611459 -0.42260742 83.84106445 C4.11040961 87.17480437 7.37461785 90.08269143 8.59075928 95.75579834 C9.40029493 103.88679677 8.99985228 112.03794513 8.6875 120.1875 C8.63226326 122.69064773 8.58208371 125.19391248 8.53710938 127.69726562 C8.41649375 133.80108693 8.22703575 139.89924786 8 146 C14.6 146 21.2 146 28 146 C28 148.97 28 151.94 28 155 C18.76 155 9.52 155 0 155 C0.12503906 151.01035156 0.25007813 147.02070313 0.37890625 142.91015625 C0.4310356 139.6778477 0.46575476 136.44636471 0.48896027 133.21376801 C0.5179444 129.82703902 0.57568361 126.44708222 0.7097168 123.06274414 C1.71759903 106.21636136 1.71759903 106.21636136 -4.89111328 91.32763672 C-8.87759161 87.06381609 -13.23333951 83.36290462 -18 80 C-16.6571912 76.85673289 -15.40011083 75.32447637 -12.57397461 73.43334961 C-6.86880313 69.13311365 -1.98517384 64.82797672 -0.15020752 57.69805908 C0.97522458 49.05679866 0.76205433 40.38339212 0.49353027 31.69274902 C0.3993658 28.11265269 0.39138467 24.53233061 0.37695312 20.95117188 C0.34263622 13.96061574 0.1683942 6.99368813 0 0 Z " fill="#F8F8F7" transform="translate(177,170)"/>
<path d="M0 0 C25.08 0 50.16 0 76 0 C76 0.99 76 1.98 76 3 C50.92 3 25.84 3 0 3 C0 2.01 0 1.02 0 0 Z " fill="#2F374F" transform="translate(221,265)"/>
<path d="M0 0 C24.75 0 49.5 0 75 0 C75 0.99 75 1.98 75 3 C50.25 3 25.5 3 0 3 C0 2.01 0 1.02 0 0 Z " fill="#2A3349" transform="translate(221,276)"/>
<path d="M0 0 C16.83 0 33.66 0 51 0 C51 1.32 51 2.64 51 4 C34.5 4 18 4 1 4 C0.67 2.68 0.34 1.36 0 0 Z " fill="#4B536A" transform="translate(237,314)"/>
<path d="M0 0 C1.423125 -0.061875 2.84625 -0.12375 4.3125 -0.1875 C5.51326172 -0.23970703 5.51326172 -0.23970703 6.73828125 -0.29296875 C9.47851584 0.06198392 10.29171079 0.89366282 12 3 C12.33 2.01 12.66 1.02 13 0 C13.99 0 14.98 0 16 0 C16 4.95 16 9.9 16 15 C9 15 9 15 7.0625 13.125 C6 11 6 11 6 9 C5.01 9 4.02 9 3 9 C3 10.98 3 12.96 3 15 C2.01 15 1.02 15 0 15 C0 10.05 0 5.1 0 0 Z " fill="#44475C" transform="translate(242,228)"/>
<path d="M0 0 C21.45 0 42.9 0 65 0 C65 0.99 65 1.98 65 3 C43.55 3 22.1 3 0 3 C0 2.01 0 1.02 0 0 Z " fill="#2D344A" transform="translate(221,287)"/>
<path d="M0 0 C2.5 1.5625 2.5 1.5625 4 4 C3.93913078 7.46954545 3.6274029 9.91947278 1.875 12.9375 C-1.17468171 14.66565297 -3.58518389 14.42685201 -7 14 C-8.9375 12.4375 -8.9375 12.4375 -10 10 C-10.61818182 4.12727273 -10.61818182 4.12727273 -8.9375 1.0625 C-5.8347167 -0.63902633 -3.46230815 -0.42519574 0 0 Z " fill="#F1F3F2" transform="translate(246,205)"/>
<path d="M0 0 C1.423125 -0.061875 2.84625 -0.12375 4.3125 -0.1875 C5.51326172 -0.23970703 5.51326172 -0.23970703 6.73828125 -0.29296875 C9 0 9 0 10.76953125 1.26171875 C12.24312122 3.34345696 12.40376248 4.46890199 12.375 7 C12.38273438 7.680625 12.39046875 8.36125 12.3984375 9.0625 C11.87313531 11.61691066 11.11606316 12.49119559 9 14 C6.73828125 14.29296875 6.73828125 14.29296875 4.3125 14.1875 C2.889375 14.125625 1.46625 14.06375 0 14 C0 9.38 0 4.76 0 0 Z " fill="#3B3D52" transform="translate(221,205)"/>
<path d="M0 0 C2.32579101 3.48868651 2.41865457 4.89718519 2 9 C0.9375 11.375 0.9375 11.375 -1 13 C-4.42009021 13.42751128 -6.83132725 13.60318593 -9.9375 12 C-11.66149757 8.75482811 -11.65498416 5.58008387 -11 2 C-7.94917282 -2.02709188 -4.54879972 -1.17931845 0 0 Z " fill="#EFF0F0" transform="translate(272,184)"/>
<path d="M0 0 C0.99 0.33 1.98 0.66 3 1 C4.1875 4.5625 4.1875 4.5625 5 8 C6.9451 5.08235 7.45276317 3.37462715 8 0 C9.32 0.33 10.64 0.66 12 1 C12.66 3.31 13.32 5.62 14 8 C14.99 5.36 15.98 2.72 17 0 C17.66 0 18.32 0 19 0 C18.44854729 5.23880078 17.57077907 9.97350697 16 15 C14.68 14.67 13.36 14.34 12 14 C11.67 11.03 11.34 8.06 11 5 C10.34 5 9.68 5 9 5 C8.855625 6.093125 8.71125 7.18625 8.5625 8.3125 C8 12 8 12 7 15 C5.68 14.67 4.36 14.34 3 14 C2.01 9.38 1.02 4.76 0 0 Z " fill="#4F536A" transform="translate(220,228)"/>
<path d="M0 0 C6.8359375 -0.1953125 6.8359375 -0.1953125 9 0 C11 2 11 2 11.25 4.375 C11 7 11 7 9.875 9.0625 C9.58625 9.701875 9.2975 10.34125 9 11 C9.78309467 13.23470405 9.78309467 13.23470405 11 15 C9.0625 14.25 9.0625 14.25 7 13 C6.25 10.875 6.25 10.875 6 9 C4.68 9 3.36 9 2 9 C2 10.98 2 12.96 2 15 C1.34 15 0.68 15 0 15 C0 10.05 0 5.1 0 0 Z " fill="#3D4054" transform="translate(286,228)"/>
<path d="M0 0 C0 3.3 0 6.6 0 10 C-2.82883747 11.41441874 -4.87376745 11.31900332 -8 11 C-9.9375 9.375 -9.9375 9.375 -11 7 C-10.875 3.875 -10.875 3.875 -10 1 C-6.1496895 -1.56687367 -4.41430237 -0.83288724 0 0 Z " fill="#7A808F" transform="translate(233,311)"/>
<path d="M0 0 C1.859375 0.1953125 1.859375 0.1953125 4 1 C5.265625 3.1796875 5.265625 3.1796875 6.25 5.875 C6.58515625 6.75929687 6.9203125 7.64359375 7.265625 8.5546875 C8 11 8 11 8 14 C7.01 13.67 6.02 13.34 5 13 C5 12.34 5 11.68 5 11 C2.69 11 0.38 11 -2 11 C-2.33 11.99 -2.66 12.98 -3 14 C-4.37095624 10.30962722 -3.60010967 8.29116165 -2.0625 4.75 C-1.68222656 3.85796875 -1.30195313 2.9659375 -0.91015625 2.046875 C-0.60980469 1.37140625 -0.30945313 0.6959375 0 0 Z " fill="#7A7E8C" transform="translate(224,183)"/>
<path d="M0 0 C2.5 1.5625 2.5 1.5625 4 4 C3.93913078 7.46954545 3.6274029 9.91947278 1.875 12.9375 C-1.17468171 14.66565297 -3.58518389 14.42685201 -7 14 C-8.9375 12.4375 -8.9375 12.4375 -10 10 C-10.61818182 4.12727273 -10.61818182 4.12727273 -8.9375 1.0625 C-5.8347167 -0.63902633 -3.46230815 -0.42519574 0 0 Z M-8 3 C-8.25003964 6.45821402 -8.25003964 6.45821402 -8 10 C-6.17296773 12.2491908 -6.17296773 12.2491908 -3.5 12.25 C-0.82703227 12.2491908 -0.82703227 12.2491908 1 10 C1.25003964 6.45821402 1.25003964 6.45821402 1 3 C-0.17718985 1.59567064 -0.17718985 1.59567064 -3.5 1.875 C-6.82281015 1.59567064 -6.82281015 1.59567064 -8 3 Z " fill="#424555" transform="translate(246,205)"/>
<path d="M0 0 C0.99 0 1.98 0 3 0 C3.33 3.96 3.66 7.92 4 12 C5.65 11.67 7.3 11.34 9 11 C9.33 7.37 9.66 3.74 10 0 C10.66 0 11.32 0 12 0 C12.08107583 1.93681161 12.13922475 3.8745934 12.1875 5.8125 C12.22230469 6.89144531 12.25710937 7.97039062 12.29296875 9.08203125 C12 12 12 12 10.67578125 13.859375 C8.03695662 15.65549806 6.09517555 15.45137977 3 15 C0.7229644 12.73357995 0.04402291 11.42027204 -0.29296875 8.203125 C-0.25816406 7.22859375 -0.22335938 6.2540625 -0.1875 5.25 C-0.16042969 4.26515625 -0.13335937 3.2803125 -0.10546875 2.265625 C-0.07066406 1.51796875 -0.03585938 0.7703125 0 0 Z " fill="#626778" transform="translate(234,183)"/>
<path d="M0 0 C0.99 0 1.98 0 3 0 C3 4.95 3 9.9 3 15 C1.35 15 -0.3 15 -2 15 C-3.8125 13.1875 -3.8125 13.1875 -5 11 C-5 10.01 -5 9.02 -5 8 C-4.34 7.67 -3.68 7.34 -3 7 C-1.94647157 4.69034152 -0.94280904 2.3570226 0 0 Z " fill="#9599A4" transform="translate(255,228)"/>
<path d="M0 0 C2.33294775 -0.04241723 4.66702567 -0.04092937 7 0 C8 1 8 1 8.1875 4.4375 C8 8 8 8 6 10 C2.875 10.125 2.875 10.125 0 10 C0 6.7 0 3.4 0 0 Z " fill="#EEEFF1" transform="translate(223,207)"/>
<path d="M0 0 C2.32579101 3.48868651 2.41865457 4.89718519 2 9 C0.9375 11.375 0.9375 11.375 -1 13 C-4.42009021 13.42751128 -6.83132725 13.60318593 -9.9375 12 C-11.66149757 8.75482811 -11.65498416 5.58008387 -11 2 C-7.94917282 -2.02709188 -4.54879972 -1.17931845 0 0 Z M-9 3 C-9.33333333 6 -9.33333333 6 -9 9 C-7.17296773 11.2491908 -7.17296773 11.2491908 -4.5 11.25 C-1.82703227 11.2491908 -1.82703227 11.2491908 0 9 C0.33333333 6 0.33333333 6 0 3 C-1.82703227 0.7508092 -1.82703227 0.7508092 -4.5 0.75 C-7.17296773 0.7508092 -7.17296773 0.7508092 -9 3 Z " fill="#3F4257" transform="translate(272,184)"/>
<path d="M0 0 C2.97 0 5.94 0 9 0 C9 0.66 9 1.32 9 2 C6.69 2 4.38 2 2 2 C2 3.32 2 4.64 2 6 C4.31 6 6.62 6 9 6 C9 6.66 9 7.32 9 8 C6.69 8 4.38 8 2 8 C2 9.65 2 11.3 2 13 C4.64 13 7.28 13 10 13 C10 13.66 10 14.32 10 15 C6.7 15 3.4 15 0 15 C0 10.05 0 5.1 0 0 Z " fill="#404156" transform="translate(274,228)"/>
<path d="M0 0 C1.62490954 -0.02698189 3.24994633 -0.04638757 4.875 -0.0625 C5.77992188 -0.07410156 6.68484375 -0.08570313 7.6171875 -0.09765625 C10 0 10 0 12 1 C12 5.95 12 10.9 12 16 C11.67 16 11.34 16 11 16 C10.67 13.03 10.34 10.06 10 7 C7.36 7 4.72 7 2 7 C2 5.68 2 4.36 2 3 C4.31 3 6.62 3 9 3 C9 2.34 9 1.68 9 1 C6.03 1 3.06 1 0 1 C0 0.67 0 0.34 0 0 Z " fill="#DEDFE1" transform="translate(274,227)"/>
<path d="M0 0 C0.66 1.32 1.32 2.64 2 4 C-0.97 3.67 -3.94 3.34 -7 3 C-7.04241723 5.33294775 -7.04092937 7.66702567 -7 10 C-6.01732141 11.20561184 -6.01732141 11.20561184 -4.15234375 11.09765625 C-2.1015625 11.06510417 -0.05078125 11.03255208 2 11 C1.01 12.485 1.01 12.485 0 14 C-3.36875585 14.36750064 -5.87672462 14.57975504 -8.9375 13 C-10.65886567 9.75978228 -10.52960415 6.58042244 -10 3 C-7.8202924 -1.102979 -4.20798751 -0.23818797 0 0 Z " fill="#424458" transform="translate(262,205)"/>
<path d="M0 0 C0.33 0 0.66 0 1 0 C1 2.97 1 5.94 1 9 C-1.97 8.67 -4.94 8.34 -8 8 C-8 6.35 -8 4.7 -8 3 C-5.69 3 -3.38 3 -1 3 C-0.67 2.01 -0.34 1.02 0 0 Z " fill="#ECEDEE" transform="translate(284,233)"/>
<path d="M0 0 C3.96 0 7.92 0 12 0 C12 0.66 12 1.32 12 2 C10.35 2 8.7 2 7 2 C7 6.29 7 10.58 7 15 C6.34 15 5.68 15 5 15 C5 10.71 5 6.42 5 2 C3.35 2 1.7 2 0 2 C0 1.34 0 0.68 0 0 Z " fill="#47495D" transform="translate(248,183)"/>
<path d="M0 0 C3.63 0 7.26 0 11 0 C11 0.66 11 1.32 11 2 C9.68 2 8.36 2 7 2 C7 6.29 7 10.58 7 15 C6.34 15 5.68 15 5 15 C5 10.71 5 6.42 5 2 C3.35 2 1.7 2 0 2 C0 1.34 0 0.68 0 0 Z " fill="#3A3E51" transform="translate(260,228)"/>
<path d="M0 0 C0.66 0 1.32 0 2 0 C3.25664978 2.90600261 4 4.79604584 4 8 C3.01 7.67 2.02 7.34 1 7 C1 6.34 1 5.68 1 5 C-1.31 5 -3.62 5 -6 5 C-6.33 5.99 -6.66 6.98 -7 8 C-7.6875 6.1875 -7.6875 6.1875 -8 4 C-6.5625 2.25 -6.5625 2.25 -5 1 C-5 1.99 -5 2.98 -5 4 C-3.35 4 -1.7 4 0 4 C0 2.68 0 1.36 0 0 Z " fill="#373C52" transform="translate(228,189)"/>
<path d="M0 0 C2.375 -0.1875 2.375 -0.1875 5 0 C7.32579101 3.48868651 7.41865457 4.89718519 7 9 C5.875 11.375 5.875 11.375 4 13 C0.8125 13.25 0.8125 13.25 -2 13 C-1.38125 12.71125 -0.7625 12.4225 -0.125 12.125 C2.13325765 11.06279958 2.13325765 11.06279958 4 9 C4.50010524 6.04230823 4.50010524 6.04230823 4 3 C2.11922127 1.08743288 2.11922127 1.08743288 0 0 Z " fill="#33364B" transform="translate(267,184)"/>
<path d="M0 0 C0.66 0 1.32 0 2 0 C1.44854729 5.23880078 0.57077907 9.97350697 -1 15 C-1.99 15 -2.98 15 -4 15 C-4 14.01 -4 13.02 -4 12 C-3.34 12 -2.68 12 -2 12 C-1.855625 10.7625 -1.71125 9.525 -1.5625 8.25 C-1.21311498 5.43495501 -0.79620634 2.7298503 0 0 Z " fill="#41455A" transform="translate(237,228)"/>
<path d="M0 0 C0.66 0 1.32 0 2 0 C2.05389087 1.95803507 2.09274217 3.91648909 2.125 5.875 C2.14820313 6.96554688 2.17140625 8.05609375 2.1953125 9.1796875 C2 12 2 12 0 14 C-3.125 14.125 -3.125 14.125 -6 14 C-5.360625 13.690625 -4.72125 13.38125 -4.0625 13.0625 C-2.06389179 12.1654837 -2.06389179 12.1654837 -1 11 C-0.76636119 9.15108054 -0.58696365 7.29511969 -0.4375 5.4375 C-0.35371094 4.42558594 -0.26992187 3.41367188 -0.18359375 2.37109375 C-0.12300781 1.58863281 -0.06242188 0.80617187 0 0 Z " fill="#33374B" transform="translate(244,183)"/>
<path d="M0 0 C0.99 0.33 1.98 0.66 3 1 C2.525625 1.37125 2.05125 1.7425 1.5625 2.125 C-0.52205802 4.62646962 -0.64621491 6.81593418 -1 10 C-1.33 10 -1.66 10 -2 10 C-2.33 8.35 -2.66 6.7 -3 5 C-3.99 4.67 -4.98 4.34 -6 4 C-6 7.63 -6 11.26 -6 15 C-6.33 15 -6.66 15 -7 15 C-7 11.04 -7 7.08 -7 3 C-5.5459375 2.5359375 -5.5459375 2.5359375 -4.0625 2.0625 C-1.15934208 1.30476658 -1.15934208 1.30476658 0 0 Z " fill="#E2E4E8" transform="translate(262,182)"/>
<path d="M0 0 C0.99 0 1.98 0 3 0 C3 3.3 3 6.6 3 10 C1.35 10.33 -0.3 10.66 -2 11 C-1.34 10.67 -0.68 10.34 0 10 C0 6.7 0 3.4 0 0 Z " fill="#363F59" transform="translate(230,311)"/>
<path d="M0 0 C1.98 0 3.96 0 6 0 C6.5625 1.9375 6.5625 1.9375 7 4 C6 5 6 5 2.9375 5.0625 C1.4834375 5.0315625 1.4834375 5.0315625 0 5 C0 3.35 0 1.7 0 0 Z " fill="#EAECEF" transform="translate(244,230)"/>
<path d="M0 0 C0 2.64 0 5.28 0 8 C-1.32 7.67 -2.64 7.34 -4 7 C-4.33 5.02 -4.66 3.04 -5 1 C-1.125 0 -1.125 0 0 0 Z " fill="#222842" transform="translate(227,313)"/>
<path d="M0 0 C0.99 0.33 1.98 0.66 3 1 C3.94921875 3.50390625 3.94921875 3.50390625 4.6875 6.5625 C4.93886719 7.57441406 5.19023437 8.58632812 5.44921875 9.62890625 C5.63097656 10.41136719 5.81273437 11.19382813 6 12 C5.34 12 4.68 12 4 12 C3.67 12.66 3.34 13.32 3 14 C2.01 9.38 1.02 4.76 0 0 Z " fill="#51566A" transform="translate(220,228)"/>
<path d="M0 0 C1.98 0 3.96 0 6 0 C6 1.65 6 3.3 6 5 C4.02 5 2.04 5 0 5 C0 3.35 0 1.7 0 0 Z " fill="#F3F4F5" transform="translate(288,230)"/>
<path d="M0 0 C0.66 0 1.32 0 2 0 C2.87155669 3.48622676 2.90692012 5.57385733 2 9 C1.78807905 10.58025005 1.60076629 12.16398461 1.4375 13.75 C1.35371094 14.54921875 1.26992188 15.3484375 1.18359375 16.171875 C1.12300781 16.77515625 1.06242187 17.3784375 1 18 C0.67 18 0.34 18 0 18 C0 12.06 0 6.12 0 0 Z " fill="#262D46" transform="translate(310,213)"/>
<path d="M0 0 C0.33 0 0.66 0 1 0 C0.125 7.625 0.125 7.625 -1 11 C-1.99 11 -2.98 11 -4 11 C-4 10.01 -4 9.02 -4 8 C-3.34 8 -2.68 8 -2 8 C-1.855625 6.865625 -1.71125 5.73125 -1.5625 4.5625 C-1 1 -1 1 0 0 Z " fill="#3D4056" transform="translate(228,232)"/>
<path d="M0 0 C2.475 0.495 2.475 0.495 5 1 C5 2.98 5 4.96 5 7 C3.68 7.33 2.36 7.66 1 8 C1.33 5.69 1.66 3.38 2 1 C1.34 0.67 0.68 0.34 0 0 Z " fill="#E6E9EA" transform="translate(237,227)"/>
<path d="M0 0 C0.66 0 1.32 0 2 0 C3.10807948 3.32423843 2.76802174 4.67190578 2 8 C2 8.66 2 9.32 2 10 C1.34 10 0.68 10 0 10 C0 6.7 0 3.4 0 0 Z " fill="#222839" transform="translate(283,184)"/>
</svg>
